<svg width="342" height="341" viewBox="0 0 342 341" fill="none" xmlns="http://www.w3.org/2000/svg">
  <path d="M161.028 206.611C173.053 199.668 188.862 203.746 192.526 217.14C194.822 225.531 196 234.226 196 243C196 260.203 191.472 277.102 182.87 292C174.269 306.898 161.898 319.269 147 327.871C132.102 336.472 115.203 341 98 341C80.7974 341 63.8979 336.472 49 327.871C34.1021 319.27 21.7308 306.898 13.1295 292C4.52822 277.102 1.64043e-06 260.203 0 243C-8.36693e-07 234.226 1.17799 225.531 3.47359 217.14C7.13774 203.747 22.9467 199.668 34.972 206.611V206.611C46.9215 213.51 50.2842 229.202 50.2842 243V243C50.2842 251.376 52.4889 259.605 56.6769 266.858C60.8648 274.112 66.8884 280.135 74.1421 284.323C81.3958 288.511 89.6241 290.716 98 290.716C106.376 290.716 114.604 288.511 121.858 284.323C129.112 280.135 135.135 274.112 139.323 266.858C143.511 259.604 145.716 251.376 145.716 243V243C145.716 229.202 149.078 213.51 161.028 206.611V206.611Z" fill="#03A9F4"/>
  <path d="M180.903 134.429C168.878 141.372 153.137 137.254 149.474 123.86C146.054 111.359 145.125 98.2226 146.838 85.2084C149.654 63.8198 159.449 43.958 174.704 28.7035C189.958 13.449 209.82 3.65425 231.208 0.838392C244.223 -0.874949 257.359 0.0537344 269.86 3.4735C283.254 7.13748 287.372 22.8779 280.429 34.9032V34.9032C273.486 46.9285 257.727 50.2382 243.842 50.2844C241.82 50.2911 239.793 50.4263 237.772 50.6924C227.358 52.0634 217.687 56.8324 210.26 64.2598C202.832 71.6872 198.063 81.3578 196.692 91.7718C196.426 93.793 196.291 95.8202 196.284 97.8415C196.238 111.727 192.928 127.486 180.903 134.429V134.429Z" fill="#03A9F4"/>
  <rect x="146" y="98.0003" width="50" height="142" fill="#03A9F4"/>
</svg>
